<svg width="293" height="123" viewBox="0 0 293 123" fill="none" xmlns="http://www.w3.org/2000/svg">
<path d="M28.4844 25.7969H49.2031V53.5938H68.3281V65.8281H49.2031V88H28.4844V25.7969ZM52.4844 38.2188V25.7969H84.0781V46.4219H63.3594V38.2188H52.4844ZM96.8 32.0312L102.988 25.7969H127.878V72.7188H107.159V38.2188H96.8V32.0312ZM96.8 75.5781H138.238V88H96.8V75.5781ZM152.131 88V63.1094H162.584V88H152.131ZM168.725 69.3203H164.272V66.6016L167.741 63.1094H173.506L179.108 68.7109V88H168.725V69.3203ZM196.461 88H192.312L186.102 81.7891V69.3203L192.312 63.1094H196.461V88ZM198.102 78.0156V73.6797H203.562V69.3203H198.102V63.1094H206.891L213.102 69.3203V78.0156H198.102ZM198.102 88V82.1875H212.023V84.8828L208.93 88H198.102ZM227.947 63.1094L244.517 88H233.759L217.166 63.1094H227.947ZM232.002 66.5547L233.759 63.1094H244.517L237.345 74.5938L232.002 66.5547ZM227.947 88H217.166L224.08 76.1406L229.634 84.5078L227.947 88ZM259.691 81.7891H266.534V88H255.566L249.331 81.7891V69.3203H247.269V63.1094H249.331V60.4141L259.691 56.8984V81.7891ZM261.331 69.3203V63.1094H266.909V69.3203H261.331Z" fill="url(#paint0_linear_108_33)"/>
<path d="M1 8.75201H292V104.864L147.999 121.993L1 104.862V8.75201Z" stroke="url(#paint1_linear_108_33)" stroke-opacity="0.8" stroke-width="2" stroke-linejoin="round"/>
<defs>
<linearGradient id="paint0_linear_108_33" x1="149.293" y1="0" x2="149.293" y2="122.752" gradientUnits="userSpaceOnUse">
<stop offset="0.161458" stop-color="#DE9695" stop-opacity="0.76"/>
<stop offset="0.609375" stop-color="#BF0603"/>
</linearGradient>
<linearGradient id="paint1_linear_108_33" x1="146.5" y1="7.75201" x2="146.5" y2="105.752" gradientUnits="userSpaceOnUse">
<stop stop-color="#F80707" stop-opacity="0"/>
<stop offset="1" stop-color="#F80707"/>
</linearGradient>
</defs>
</svg>
